<?xml version="1.0" encoding="UTF-8" standalone="no"?>
<!-- Created with Inkscape (http://www.inkscape.org/) -->

<svg
   width="50mm"
   height="50mm"
   viewBox="0 0 50 50"
   version="1.1"
   id="svg1"
   xml:space="preserve"
   inkscape:export-filename="action_set_black.svg"
   inkscape:export-xdpi="96"
   inkscape:export-ydpi="96"
   xmlns:inkscape="http://www.inkscape.org/namespaces/inkscape"
   xmlns:sodipodi="http://sodipodi.sourceforge.net/DTD/sodipodi-0.dtd"
   xmlns="http://www.w3.org/2000/svg"
   xmlns:svg="http://www.w3.org/2000/svg"><sodipodi:namedview
     id="namedview1"
     pagecolor="#ffffff"
     bordercolor="#000000"
     borderopacity="0.25"
     inkscape:showpageshadow="2"
     inkscape:pageopacity="0.0"
     inkscape:pagecheckerboard="0"
     inkscape:deskcolor="#d1d1d1"
     inkscape:document-units="mm" /><defs
     id="defs1" /><g
     inkscape:label="Layer 1"
     inkscape:groupmode="layer"
     id="layer1"><path
       style="fill:#999999;stroke-width:0.995154"
       d="M 5.2156464,49.077746 C 4.7503249,48.785866 4.1374813,48.155372 3.8537722,47.676648 3.3582771,46.840566 3.3378971,46.30794 3.3369651,34.169813 3.3363293,25.889848 3.4295342,21.353565 3.6073241,21.011798 3.8252223,20.592925 3.5395773,19.628609 2.1567982,16.114873 0.28697537,11.363538 0.25696665,10.985015 1.7036397,10.398705 2.7205757,9.9865612 42.950895,0.47027758 43.676312,0.47027758 c 0.976595,0 1.397074,0.77985782 2.895004,5.36935232 1.554762,4.7636191 1.65661,5.7731701 0.635314,6.2974301 -0.356935,0.183226 -6.75268,1.689222 -14.212764,3.346658 l -13.563791,3.013521 14.602148,0.133532 c 8.031182,0.07344 14.748168,0.230761 14.926636,0.349594 0.252718,0.168274 0.324273,3.269429 0.323517,14.02097 -9.36e-4,13.304086 -0.01968,13.836484 -0.516807,14.675313 -0.28371,0.478724 -0.896554,1.109218 -1.361874,1.401098 -0.82512,0.517571 -1.34668,0.530694 -21.094024,0.530694 -19.747344,0 -20.2689046,-0.01313 -21.0940246,-0.530694 z m 39.5921526,-2.67066 c 0.465321,-0.291882 1.078165,-0.922376 1.361875,-1.401099 0.477202,-0.805216 0.515908,-1.355459 0.516807,-7.346758 l 9.7e-4,-6.476353 H 26.309671 5.9318908 l 9.704e-4,6.476353 c 8.978e-4,5.991299 0.039608,6.541542 0.516806,7.346758 0.2837103,0.478723 0.8965539,1.109217 1.3618754,1.401099 0.822312,0.51581 1.3410715,0.530692 18.4981284,0.530692 17.157057,0 17.675816,-0.01488 18.498128,-0.530692 z M 14.070485,24.9321 c 1.663066,-1.822179 3.023756,-3.384514 3.023756,-3.471859 0,-0.08734 -2.511529,-0.158809 -5.581175,-0.158809 H 5.9318908 v 3.471859 3.471859 h 2.5574184 2.5574188 z m 11.208852,-0.09205 3.178621,-3.405094 -3.670039,-0.08205 -3.670039,-0.08205 -3.042527,3.286848 c -1.673388,1.807767 -3.045969,3.376983 -3.050177,3.487148 -0.0042,0.110165 1.586067,0.2003 3.533945,0.2003 h 3.541596 z m 11.360474,-0.07242 3.061634,-3.466206 h -3.800747 -3.800747 l -1.202977,1.402096 c -0.661639,0.771154 -1.993655,2.252456 -2.960039,3.291781 -0.966382,1.039324 -1.757059,1.970717 -1.757059,2.069761 0,0.09904 1.664617,0.177536 3.699151,0.174428 l 3.699151,-0.0056 z m 10.04764,0.0056 V 21.301371 H 45.032137 43.376823 L 40.8276,24.172332 c -1.402071,1.579028 -2.780218,3.141364 -3.062547,3.471859 l -0.513326,0.600899 h 4.717861 4.717863 z M 9.1633643,17.984355 c 1.1495607,-0.35553 3.1122457,-0.860913 4.3615197,-1.123074 1.249276,-0.262161 2.27141,-0.549981 2.27141,-0.639601 0,-0.08962 -1.547354,-1.16461 -3.438565,-2.38887 L 8.9191641,11.606885 6.4776706,12.177016 c -1.3428209,0.313571 -2.4812908,0.611074 -2.5299321,0.661115 -0.088262,0.0908 1.5612901,4.439532 2.0199791,5.325276 0.3175454,0.613188 0.704054,0.591531 3.1956467,-0.179052 z M 23.454185,14.62478 c 1.925353,-0.440659 3.581335,-0.801199 3.679959,-0.801199 0.09862,0 -1.304519,-1.081617 -3.118099,-2.403593 -1.81358,-1.321978 -3.520419,-2.4035959 -3.792977,-2.4035959 -0.446335,0 -7.334665,1.5672889 -7.461406,1.6976809 -0.02896,0.0298 1.398897,0.989483 3.173013,2.132641 1.774119,1.143158 3.293359,2.191148 3.376091,2.328867 0.209057,0.348004 0.226367,0.345703 4.143419,-0.550801 z m 12.518238,-2.813498 c 1.174061,-0.256006 2.077275,-0.560983 2.007143,-0.677728 -0.366405,-0.609932 -6.069328,-4.7878222 -6.535495,-4.7878222 -0.615245,0 -7.416947,1.6175211 -7.291811,1.7340745 0.04439,0.041334 1.573921,1.1587492 3.398975,2.4831387 l 3.318283,2.407981 1.484125,-0.34709 c 0.816269,-0.190899 2.44472,-0.556549 3.61878,-0.812554 z m 8.524831,-1.9431044 c 0.460991,-0.2797587 -1.391587,-6.1923794 -1.941141,-6.1952743 -0.517999,-0.00273 -7.340716,1.6430342 -7.23717,1.7457359 0.04201,0.041657 1.478146,1.1784755 3.191436,2.5262621 l 3.115076,2.4505227 1.284201,-0.171563 c 0.70631,-0.09436 1.420729,-0.2544169 1.587598,-0.3556834 z"
       id="path5" /></g></svg>
