<?xml version="1.0" encoding="UTF-8" standalone="no"?>
<!-- Created with Inkscape (http://www.inkscape.org/) -->

<svg
   width="50mm"
   height="50mm"
   viewBox="0 0 50 50"
   version="1.1"
   id="svg1"
   xml:space="preserve"
   inkscape:export-filename="choose_image_black.svg"
   inkscape:export-xdpi="96"
   inkscape:export-ydpi="96"
   xmlns:inkscape="http://www.inkscape.org/namespaces/inkscape"
   xmlns:sodipodi="http://sodipodi.sourceforge.net/DTD/sodipodi-0.dtd"
   xmlns="http://www.w3.org/2000/svg"
   xmlns:svg="http://www.w3.org/2000/svg"><sodipodi:namedview
     id="namedview1"
     pagecolor="#ffffff"
     bordercolor="#000000"
     borderopacity="0.25"
     inkscape:showpageshadow="2"
     inkscape:pageopacity="0.0"
     inkscape:pagecheckerboard="0"
     inkscape:deskcolor="#d1d1d1"
     inkscape:document-units="mm" /><defs
     id="defs1" /><g
     inkscape:label="Layer 1"
     inkscape:groupmode="layer"
     id="layer1"><path
       style="fill:#999999;stroke-width:0.967939"
       d="M 6.4697875,49.424854 C 4.1790728,48.64813 2.3154775,46.840683 1.1869588,44.301188 L 0.52996106,42.822754 V 25.19732 7.5718859 L 1.1757387,6.1250223 C 1.9653551,4.3558863 2.8786825,3.1871646 4.2361201,2.2088617 6.2699482,0.74308426 6.2734018,0.74275708 18.854928,0.82359495 c 6.37634,0.0409637 11.780309,0.13077971 12.008817,0.19957795 0.939814,0.282958 1.055581,2.4251576 0.171471,3.1729896 C 30.811017,4.3858038 26.844725,4.5451518 19.228907,4.6704879 7.2502653,4.867626 6.7690356,4.916877 5.5612715,6.0692888 5.3016917,6.3169714 4.885422,6.9411188 4.6362283,7.4562827 4.2178422,8.3212214 4.1769186,9.4945992 4.1017902,22.779987 c -0.04475,7.912874 -0.00923,14.386999 0.079013,14.386943 0.08821,-5.5e-5 1.7008585,-1.716606 3.5836749,-3.814559 3.3909679,-3.77843 3.4336009,-3.814459 4.5136129,-3.814459 1.009923,0 1.227362,0.137364 2.949214,1.863137 1.155011,1.157642 2.024468,1.829496 2.296139,1.774293 0.240479,-0.04886 3.385322,-3.343659 6.988539,-7.321762 3.603218,-3.978103 6.845109,-7.362162 7.204205,-7.520133 0.359094,-0.157969 0.924978,-0.232339 1.257518,-0.165264 0.522968,0.105484 7.465058,7.45467 11.581737,12.260911 l 1.101307,1.285783 0.12466,-5.007437 c 0.110645,-4.444472 0.178056,-5.069628 0.59961,-5.560608 0.703545,-0.819413 1.967561,-0.739824 2.643168,0.166427 0.532017,0.713643 0.535696,0.804538 0.44448,10.983014 -0.08896,9.927156 -0.110471,10.312556 -0.656423,11.763321 -0.746905,1.984759 -2.45011,3.945559 -4.226916,4.866199 l -1.421771,0.736681 -17.826329,0.0577 C 10.991211,49.766603 7.3076397,49.708946 6.4697875,49.424854 Z M 13.326955,19.794836 c -0.70521,-0.434184 -1.452967,-1.975011 -1.452967,-2.993982 0,-1.970855 1.257317,-3.30998 3.107771,-3.30998 0.664229,0 1.123856,0.227426 1.819946,0.900518 0.86505,0.83647 0.931286,1.0063 0.931286,2.38781 0,1.381509 -0.06623,1.55134 -0.931286,2.387809 -0.760941,0.735801 -1.125772,0.899054 -1.994554,0.892519 -0.584798,-0.0043 -1.250886,-0.123512 -1.480196,-0.264694 z M 40.016644,15.85624 C 39.794222,15.719126 38.69277,14.125824 37.568971,12.31557 35.326925,8.7040038 35.16955,8.0273541 36.355336,7.0974154 c 0.637103,-0.4996406 0.704054,-0.5038989 1.312178,-0.083469 0.352452,0.2436677 1.16069,1.2679504 1.796085,2.2761838 0.635395,1.0082338 1.22295,1.8284918 1.305675,1.8227978 0.08272,-0.0057 1.272347,-1.9210741 2.643603,-4.2563977 2.936457,-5.0009475 3.472869,-5.7297642 4.217131,-5.7297642 0.66263,0 1.641872,1.0167561 1.641872,1.7047722 0,0.5762497 -6.799536,12.1604987 -7.530532,12.8296347 -0.556863,0.509739 -1.112343,0.572565 -1.724704,0.195069 z"
       id="path3" /></g></svg>
