<?xml version="1.0" encoding="UTF-8" standalone="no"?>
<!-- Created with Inkscape (http://www.inkscape.org/) -->

<svg
   width="50mm"
   height="50mm"
   viewBox="0 0 50 50"
   version="1.1"
   id="svg1"
   xml:space="preserve"
   inkscape:export-filename="close_black.svg"
   inkscape:export-xdpi="96"
   inkscape:export-ydpi="96"
   xmlns:inkscape="http://www.inkscape.org/namespaces/inkscape"
   xmlns:sodipodi="http://sodipodi.sourceforge.net/DTD/sodipodi-0.dtd"
   xmlns="http://www.w3.org/2000/svg"
   xmlns:svg="http://www.w3.org/2000/svg"><sodipodi:namedview
     id="namedview1"
     pagecolor="#ffffff"
     bordercolor="#000000"
     borderopacity="0.25"
     inkscape:showpageshadow="2"
     inkscape:pageopacity="0.0"
     inkscape:pagecheckerboard="0"
     inkscape:deskcolor="#d1d1d1"
     inkscape:document-units="mm" /><defs
     id="defs1" /><g
     inkscape:label="Layer 1"
     inkscape:groupmode="layer"
     id="layer1"><path
       style="fill:#999999;stroke-width:0.97194"
       d="M 22.20433,49.38288 C 11.9456,47.931673 3.9393304,40.69578 1.4851537,30.657333 0.35165587,26.020928 0.86079325,20.216558 2.801867,15.646278 5.1434745,10.132942 10.128702,5.1276448 15.60299,2.7936213 21.621405,0.22760292 28.693331,0.22024989 34.682466,2.7737844 c 5.502696,2.3461359 10.498332,7.3410046 12.827851,12.8258786 2.569303,6.049457 2.569303,13.11353 0,19.162989 -2.328613,5.482738 -7.325339,10.479821 -12.822822,12.823734 -3.639424,1.551709 -8.881063,2.306051 -12.483165,1.796494 z m 7.149978,-5.561363 c 2.418178,-0.533339 6.07424,-2.322276 8.045981,-3.936955 2.972672,-2.434351 5.494055,-6.596744 6.36464,-10.506989 0.527466,-2.369121 0.527466,-6.023713 0,-8.392834 -0.870585,-3.910245 -3.391968,-8.072636 -6.36464,-10.506988 -1.971741,-1.6146788 -5.627803,-3.403615 -8.045981,-3.9369547 -2.364548,-0.5215115 -6.012086,-0.5215115 -8.376633,0 -2.418178,0.5333397 -6.07424,2.3222759 -8.045981,3.9369547 -2.9726735,2.434352 -5.4940553,6.596743 -6.3646405,10.506988 -0.5274661,2.369121 -0.5274661,6.023713 0,8.392834 0.8711077,3.91259 3.3956607,8.078813 6.3646405,10.503442 1.986053,1.62192 5.223914,3.249158 7.655947,3.847617 2.396268,0.589658 6.325524,0.63129 8.766667,0.09289 z M 15.249223,36.404141 c -0.936006,-0.937817 -1.112536,-1.880889 -0.543254,-2.90223 0.171619,-0.3079 1.814964,-2.26411 3.651879,-4.347134 1.836914,-2.083021 3.339843,-3.873396 3.339843,-3.978608 0,-0.105211 -1.500766,-1.893689 -3.335037,-3.974394 -3.869865,-4.389781 -4.239865,-4.903701 -4.242146,-5.892212 -0.0023,-0.975412 1.47831,-2.483987 2.437859,-2.483987 1.135616,0 1.893618,0.653983 5.396236,4.655714 l 3.339844,3.815764 0.770732,-0.895882 c 3.485111,-4.051004 6.018042,-6.800483 6.590873,-7.154346 1.077091,-0.665364 1.959316,-0.529173 2.940529,0.453937 0.997081,0.999009 1.128138,1.950422 0.417404,3.030162 -0.248989,0.378263 -1.953475,2.390145 -3.787746,4.47085 -1.834269,2.080705 -3.335037,3.869183 -3.335037,3.974394 0,0.105212 1.502931,1.895587 3.339844,3.978608 3.677619,4.170345 3.959744,4.570883 3.973018,5.640565 0.01244,1.002443 -1.465026,2.483986 -2.477151,2.483986 -1.067778,0 -1.558847,-0.425001 -5.097062,-4.411316 -1.751617,-1.973455 -3.230795,-3.612609 -3.28706,-3.642566 -0.05626,-0.02996 -1.557197,1.584688 -3.335405,3.588099 -1.778208,2.003411 -3.49704,3.827789 -3.819625,4.054175 -0.961135,0.674507 -1.959909,0.516941 -2.938538,-0.463579 z"
       id="path4" /></g></svg>
