<?xml version="1.0" encoding="UTF-8" standalone="no"?>
<!-- Created with Inkscape (http://www.inkscape.org/) -->

<svg
   width="50mm"
   height="50mm"
   viewBox="0 0 50 50"
   version="1.1"
   id="svg1"
   xml:space="preserve"
   inkscape:export-filename="images_folder_grey.svg"
   inkscape:export-xdpi="96"
   inkscape:export-ydpi="96"
   xmlns:inkscape="http://www.inkscape.org/namespaces/inkscape"
   xmlns:sodipodi="http://sodipodi.sourceforge.net/DTD/sodipodi-0.dtd"
   xmlns="http://www.w3.org/2000/svg"
   xmlns:svg="http://www.w3.org/2000/svg"><sodipodi:namedview
     id="namedview1"
     pagecolor="#ffffff"
     bordercolor="#000000"
     borderopacity="0.25"
     inkscape:showpageshadow="2"
     inkscape:pageopacity="0.0"
     inkscape:pagecheckerboard="0"
     inkscape:deskcolor="#d1d1d1"
     inkscape:document-units="mm" /><defs
     id="defs1" /><g
     inkscape:label="Layer 1"
     inkscape:groupmode="layer"
     id="layer1"><path
       style="fill:#ffffff;stroke-width:1.03776"
       d="M 6.3500699,49.300362 C 3.6062484,48.553298 1.2497667,46.054746 0.67359131,43.281656 0.46563323,42.280766 0.39495166,36.265797 0.44866797,24.140868 0.52587871,6.7124916 0.53544053,6.4413834 1.117354,5.183626 1.8719643,3.55259 3.6606883,1.765367 5.2930941,1.0113899 6.4708818,0.46739141 7.0079785,0.42225633 12.201308,0.43085057 c 6.372825,0.0105496 6.788719,0.1087024 8.969105,2.11682593 1.246279,1.1478155 2.062636,2.4536965 2.392837,3.8276884 l 0.177625,0.7391112 9.956196,0.084262 9.956196,0.084262 1.560678,0.7657643 c 1.768153,0.8675642 3.058482,2.1973006 3.904092,4.0233256 0.565912,1.222041 0.578402,1.574949 0.578402,16.344261 v 15.095251 l -0.766407,1.559367 c -0.868294,1.76667 -2.199147,3.055915 -4.026705,3.900817 -1.226634,0.567087 -1.587203,0.578944 -19.242228,0.632786 -14.10523,0.04303 -18.2770888,-0.0227 -19.3110291,-0.30421 z M 43.702653,44.677848 c 0.45796,-0.457688 0.409479,-0.553189 -1.020395,-2.010068 -2.105669,-2.145439 -2.301812,-2.222937 -3.515245,-1.388894 -1.966757,1.351835 -3.86289,1.635574 -5.727631,0.857089 -0.598881,-0.250018 -2.976957,-2.377889 -5.981258,-5.351952 -2.742916,-2.715308 -5.104665,-4.936924 -5.24833,-4.936924 -0.143665,0 -3.288716,3.028051 -6.989003,6.729001 l -6.7277923,6.729 17.3644263,-0.07337 c 16.11659,-0.06809 17.398978,-0.107898 17.845228,-0.553885 z M 19.952467,28.155618 c 0.561695,-0.233973 1.68089,-0.425405 2.4871,-0.425405 2.050262,0 3.056839,0.728564 8.300069,6.007622 2.483636,2.500606 4.610037,4.421824 4.894069,4.421824 0.27624,0 0.898433,-0.301927 1.382652,-0.670948 2.274366,-1.733288 5.207022,-1.390926 7.666997,0.895056 l 0.755396,0.701967 v -7.74502 c 0,-8.614779 -0.100285,-9.215811 -1.70028,-10.190484 -0.887185,-0.540448 -1.339623,-0.553902 -18.62675,-0.553902 -16.8510645,0 -17.7588536,0.02521 -18.563533,0.515489 -1.7078236,1.040554 -1.7634979,1.419554 -1.7634979,12.004804 v 9.557567 l 7.0732569,-7.046582 c 4.617892,-4.600477 7.427772,-7.194254 8.094521,-7.471988 z m 15.186035,5.180311 c -3.110561,-1.620531 -3.853808,-5.547641 -1.546952,-8.173668 1.18138,-1.344833 3.900992,-1.942753 5.717475,-1.257016 0.947301,0.357616 2.200324,1.512552 2.720628,2.507658 0.213132,0.407623 0.387511,1.432685 0.387511,2.277916 0,0.845232 -0.174379,1.870294 -0.387511,2.277918 -0.520304,0.995105 -1.773327,2.150041 -2.720628,2.507657 -1.125416,0.424854 -3.220879,0.354279 -4.170523,-0.140465 z m 3.001349,-4.334445 c 0.229767,-0.374762 0.183032,-0.562674 -0.213092,-0.856807 -0.939989,-0.697967 -1.916618,0.280616 -1.097176,1.099371 0.503156,0.502734 0.898158,0.429609 1.310268,-0.242564 z M 6.0207923,16.622533 c 1.6330744,-0.587842 36.5487807,-0.587842 38.1818547,0 0.604317,0.21753 1.144517,0.39737 1.200446,0.399642 0.352561,0.01433 -0.208336,-3.286159 -0.66453,-3.910303 -1.135428,-1.553437 -1.310943,-1.574746 -12.970091,-1.574746 -12.560001,0 -11.962439,0.134122 -12.223596,-2.743566 C 19.373198,6.9018596 18.877548,5.9837983 17.611502,5.2124885 16.835053,4.7394545 16.21031,4.6776994 12.201308,4.6776994 c -5.0683795,0 -5.7833805,0.2066571 -6.8687239,1.9852682 -0.4888434,0.8010945 -0.5459484,1.3888817 -0.5468682,5.6289204 -5.648e-4,2.60393 0.029879,4.73256 0.067649,4.730287 0.03777,-0.0023 0.5631138,-0.182112 1.1674306,-0.399642 z"
       id="path2" /></g></svg>
