<?xml version="1.0" encoding="UTF-8" standalone="no"?>
<!-- Created with Inkscape (http://www.inkscape.org/) -->

<svg
   width="50mm"
   height="50mm"
   viewBox="0 0 50 50"
   version="1.1"
   id="svg1"
   xml:space="preserve"
   inkscape:export-filename="choose_image_white.svg"
   inkscape:export-xdpi="96"
   inkscape:export-ydpi="96"
   xmlns:inkscape="http://www.inkscape.org/namespaces/inkscape"
   xmlns:sodipodi="http://sodipodi.sourceforge.net/DTD/sodipodi-0.dtd"
   xmlns="http://www.w3.org/2000/svg"
   xmlns:svg="http://www.w3.org/2000/svg"><sodipodi:namedview
     id="namedview1"
     pagecolor="#ffffff"
     bordercolor="#000000"
     borderopacity="0.25"
     inkscape:showpageshadow="2"
     inkscape:pageopacity="0.0"
     inkscape:pagecheckerboard="0"
     inkscape:deskcolor="#d1d1d1"
     inkscape:document-units="mm" /><defs
     id="defs1" /><g
     inkscape:label="Layer 1"
     inkscape:groupmode="layer"
     id="layer1"><path
       style="fill:#000000;stroke-width:0.396733"
       d="M 23.249803,49.162303 C 20.137577,48.920683 16.462921,47.78022 13.8187,46.235287 10.201463,44.121854 7.22055,40.990833 5.4224571,37.416236 0.29256483,27.218061 4.7661443,15.016391 15.489351,9.9588189 l 1.401192,-0.6608708 0.02909,4.1686659 0.02909,4.168661 -0.567933,0.45069 c -3.135349,2.488072 -4.867941,5.51117 -5.410105,9.439791 -0.11156,0.808272 -0.11156,1.185154 0,1.993427 0.482061,3.493106 1.780819,6.059412 4.25331,8.404436 2.472495,2.345021 5.178298,3.57682 8.861282,4.034033 0.852208,0.105809 1.249577,0.105809 2.10179,0 3.682972,-0.457213 6.388773,-1.689012 8.861266,-4.034033 2.472495,-2.345024 3.771249,-4.91133 4.253313,-8.404436 0.343931,-2.492223 -0.730929,-6.087334 -2.541367,-8.50015 -0.795023,-1.059524 -2.101592,-2.360284 -3.136133,-3.122183 L 32.896618,17.361043 V 13.274398 9.1877531 l 0.24251,0.067945 c 0.483116,0.1353533 2.524744,1.0925989 3.314365,1.5539469 2.919279,1.705644 5.559965,4.210184 7.358319,6.978961 2.276948,3.50561 3.440033,8.08055 3.101672,12.20026 -0.417711,5.085864 -2.590303,9.579155 -6.360822,13.155282 -3.729764,3.537471 -8.490714,5.625883 -13.734553,6.024719 -1.537298,0.116921 -1.988122,0.116117 -3.568165,-0.0065 z M 23.399908,32.58007 c -0.332413,-0.132288 -0.749366,-0.338422 -0.926537,-0.458087 -0.865026,-0.584196 -1.559437,-1.638319 -1.736379,-2.635834 -0.04913,-0.276991 -0.08125,-6.116784 -0.07131,-12.977276 0.01939,-13.2939363 -0.0036,-12.7201292 0.545897,-13.7603421 0.7599,-1.4386585 2.699083,-2.34828143 4.375738,-2.0525504 1.68443,0.29711062 2.879286,1.3183235 3.430828,2.9322669 0.110105,0.3220965 0.142874,3.0090986 0.157095,12.8806256 0.0098,6.860492 -0.02222,12.700265 -0.07131,12.977276 -0.220571,1.243347 -1.121141,2.379211 -2.336912,2.947401 -0.626526,0.292818 -0.828422,0.334589 -1.735859,0.359192 -0.876981,0.02376 -1.115102,-0.0073 -1.631282,-0.212688 z"
       id="path3-2" /></g></svg>
