<?xml version="1.0" encoding="UTF-8" standalone="no"?>
<!-- Created with Inkscape (http://www.inkscape.org/) -->

<svg
   width="50mm"
   height="50mm"
   viewBox="0 0 50 50"
   version="1.1"
   id="svg1"
   xml:space="preserve"
   inkscape:export-filename="play_grey.svg"
   inkscape:export-xdpi="96"
   inkscape:export-ydpi="96"
   xmlns:inkscape="http://www.inkscape.org/namespaces/inkscape"
   xmlns:sodipodi="http://sodipodi.sourceforge.net/DTD/sodipodi-0.dtd"
   xmlns="http://www.w3.org/2000/svg"
   xmlns:svg="http://www.w3.org/2000/svg"><sodipodi:namedview
     id="namedview1"
     pagecolor="#ffffff"
     bordercolor="#000000"
     borderopacity="0.25"
     inkscape:showpageshadow="2"
     inkscape:pageopacity="0.0"
     inkscape:pagecheckerboard="0"
     inkscape:deskcolor="#d1d1d1"
     inkscape:document-units="mm" /><defs
     id="defs1" /><g
     inkscape:label="Layer 1"
     inkscape:groupmode="layer"
     id="layer1"><path
       style="fill:#ffffff;stroke-width:0.379862"
       d="m 15.643228,38.404827 c -0.350171,-0.183614 -0.800669,-0.593412 -0.986912,-0.897746 -0.16168,-0.264192 -0.172795,-1.347882 -0.141179,-13.764921 0.02289,-8.982697 0.07106,-13.589738 0.144457,-13.8127137 0.337008,-1.023701 1.714582,-1.5142952 2.780089,-0.9900699 0.470775,0.2316222 1.617814,0.7428743 2.219145,0.9891068 0.290605,0.1189988 1.075231,0.4519598 1.743618,0.7399198 0.668385,0.287961 1.524339,0.653329 1.902125,0.811931 0.377781,0.1586 1.677145,0.713333 2.887468,1.232738 1.210328,0.519406 2.220801,0.944373 2.245496,0.944373 0.02468,0 0.484802,0.197266 1.022454,0.438367 0.537655,0.241102 1.47686,0.645604 2.087126,0.898892 0.610266,0.253288 1.656433,0.695463 2.324819,0.982609 0.668386,0.287146 1.476789,0.631191 1.796454,0.764542 0.319661,0.133353 1.104287,0.466439 1.743613,0.740195 0.639326,0.273755 1.495284,0.639069 1.902126,0.811809 7.48226,3.176888 8.905593,3.81048 9.258301,4.121302 0.39025,0.343904 0.622187,0.84407 0.622187,1.341733 0,0.366128 -0.406015,1.075896 -0.739718,1.293128 -0.1453,0.09459 -1.334129,0.628116 -2.641839,1.185618 -1.307713,0.557502 -3.11473,1.32781 -4.0156,1.711797 -0.900868,0.383987 -2.208579,0.944297 -2.906025,1.245135 -0.697447,0.300836 -1.600957,0.687447 -2.007799,0.859134 -1.562103,0.659201 -2.572252,1.088912 -3.54007,1.505917 -2.860764,1.232627 -3.598183,1.548713 -4.226943,1.811834 -0.377783,0.158093 -1.320322,0.562271 -2.094528,0.898174 -0.774209,0.335904 -1.42354,0.610732 -1.442964,0.610732 -0.0194,0 -0.721741,0.297298 -1.560709,0.66066 -6.346086,2.748529 -6.759047,2.911164 -7.476964,2.944619 -0.395466,0.01843 -0.776543,-0.01499 -0.898228,-0.07882 z m 6.446096,-5.940302 c 1.220532,-0.526512 2.45691,-1.054608 2.747516,-1.173546 0.2906,-0.118937 1.19411,-0.505114 2.007798,-0.858169 0.813686,-0.353056 1.764748,-0.760966 2.113474,-0.906469 0.885584,-0.369504 2.251454,-0.95005 3.434391,-1.459746 2.836779,-1.222291 3.597853,-1.548624 4.226947,-1.81243 0.37778,-0.158419 1.186187,-0.503297 1.796453,-0.766395 0.610262,-0.263098 1.727761,-0.7369 2.483328,-1.052893 1.936014,-0.809677 1.897532,-0.775828 1.204407,-1.059382 -0.808101,-0.330594 -2.138244,-0.89261 -4.929402,-2.082792 -0.508556,-0.216855 -1.305067,-0.555932 -1.770033,-0.753505 -0.464966,-0.197574 -1.297144,-0.552479 -1.84929,-0.788676 -0.552146,-0.2362 -2.644484,-1.127651 -4.649641,-1.981004 -2.005154,-0.853352 -4.636008,-1.977113 -5.846333,-2.497247 -1.210324,-0.520134 -2.219148,-0.945697 -2.241821,-0.945697 -0.02269,0 -0.524784,-0.215077 -1.115794,-0.47795 -0.591011,-0.26287 -1.115778,-0.477947 -1.166154,-0.477947 -0.05037,0 -0.09159,1.525387 -0.09159,3.38975 v 3.38975 l 0.396277,0.09495 c 1.331992,0.319133 7.680842,1.771829 8.163289,1.867863 0.839815,0.167169 1.236408,0.385753 1.478397,0.814825 0.419211,0.74331 0.129168,1.581486 -0.663213,1.916609 -0.24493,0.103592 -2.276121,0.599835 -4.513759,1.10277 -2.237642,0.502935 -4.246763,0.956223 -4.464714,1.007307 l -0.396277,0.09288 v 3.479347 3.479345 l 0.713299,-0.292123 c 0.392316,-0.160666 1.711912,-0.722906 2.932445,-1.249418 z M 1.7218917,30.092911 c -0.446119,-0.213059 -0.82013526,-0.777046 -0.82013526,-1.236699 0,-0.474329 0.37380146,-1.02504 0.84260136,-1.241381 0.3993446,-0.184289 0.6152113,-0.192467 5.0813603,-0.192467 5.2056889,0 5.1557139,-0.0059 5.6537549,0.657186 0.521142,0.693746 0.21792,1.692243 -0.623592,2.053462 -0.322763,0.138544 -0.917969,0.156549 -5.0523707,0.152821 -4.4571189,-0.0041 -4.7058458,-0.01347 -5.0816186,-0.192922 z m 0,-5.257436 c -0.446119,-0.213059 -0.82013526,-0.777044 -0.82013526,-1.236699 0,-0.474328 0.37380146,-1.025039 0.84260136,-1.24138 0.3993446,-0.184289 0.6152113,-0.192466 5.0813603,-0.192466 5.2056889,0 5.1557139,-0.0059 5.6537549,0.657185 0.521142,0.693745 0.21792,1.692243 -0.623592,2.053461 -0.322763,0.138544 -0.917969,0.156549 -5.0523707,0.152822 -4.4571189,-0.0041 -4.7058458,-0.01347 -5.0816186,-0.192923 z m 0,-5.544204 c -0.446119,-0.213058 -0.82013526,-0.777045 -0.82013526,-1.236698 0,-0.474328 0.37380146,-1.025038 0.84260136,-1.24138 0.3993446,-0.184289 0.6152113,-0.192467 5.0813603,-0.192467 5.2056889,0 5.1557139,-0.0059 5.6537549,0.657186 0.521142,0.693743 0.21792,1.692241 -0.623592,2.053461 -0.322763,0.138545 -0.917969,0.156548 -5.0523707,0.15282 -4.4571189,-0.0041 -4.7058458,-0.01347 -5.0816186,-0.192922 z"
       id="path2-5" /></g></svg>
