<?xml version="1.0" encoding="UTF-8" standalone="no"?>
<!-- Created with Inkscape (http://www.inkscape.org/) -->

<svg
   width="50mm"
   height="50mm"
   viewBox="0 0 50 50"
   version="1.1"
   id="svg1"
   xml:space="preserve"
   inkscape:export-filename="return_black.svg"
   inkscape:export-xdpi="96"
   inkscape:export-ydpi="96"
   xmlns:inkscape="http://www.inkscape.org/namespaces/inkscape"
   xmlns:sodipodi="http://sodipodi.sourceforge.net/DTD/sodipodi-0.dtd"
   xmlns="http://www.w3.org/2000/svg"
   xmlns:svg="http://www.w3.org/2000/svg"><sodipodi:namedview
     id="namedview1"
     pagecolor="#ffffff"
     bordercolor="#000000"
     borderopacity="0.25"
     inkscape:showpageshadow="2"
     inkscape:pageopacity="0.0"
     inkscape:pagecheckerboard="0"
     inkscape:deskcolor="#d1d1d1"
     inkscape:document-units="mm" /><defs
     id="defs1" /><g
     inkscape:label="Layer 1"
     inkscape:groupmode="layer"
     id="layer1"><path
       style="fill:#999999;stroke-width:0.263277"
       d="m 27.404422,48.890209 c 3.076813,-0.360858 5.470483,-1.069042 8.156987,-2.413353 3.416185,-1.709442 6.514656,-4.4446 8.742865,-7.717717 1.526746,-2.242702 2.734101,-4.880281 3.416032,-7.462657 C 49.219041,25.620909 48.674135,19.667993 46.174844,14.413059 43.938392,9.7107925 40.279978,5.9263564 35.697927,3.5752707 32.331831,1.848101 29.059173,1.0616513 25.220122,1.0573604 21.415664,1.0530338 17.987748,1.8933415 14.674052,3.6423553 12.999236,4.5263469 11.881309,5.2765428 10.339585,6.5510356 9.6636208,7.1098359 7.9512236,8.8456636 7.1884459,9.7452868 L 6.7462488,10.266827 5.0519729,8.7145348 C 3.1678483,6.9883011 2.9707664,6.814768 2.9367656,6.8520329 2.9236183,6.8663359 2.8017123,9.0371459 2.6655085,11.67623 1.902875,26.4524 1.9604864,25.039688 2.1220483,25.003082 2.485584,24.920648 4.8490104,24.355621 5.8344693,24.115434 6.4539206,23.964443 7.9436827,23.60218 9.1450479,23.310397 10.346412,23.018619 11.866889,22.6487 12.523884,22.488378 c 0.656995,-0.160305 2.1314,-0.515852 3.276452,-0.790062 1.145047,-0.27421 2.211465,-0.538089 2.36981,-0.586393 l 0.287906,-0.08783 -1.273025,-1.172924 c -0.700159,-0.64511 -1.689782,-1.552501 -2.199162,-2.016422 -0.509381,-0.463919 -0.935402,-0.899338 -0.946721,-0.967598 -0.02785,-0.167946 2.037424,-2.342397 2.750952,-2.896385 1.823256,-1.415585 3.820535,-2.30528 6.211597,-2.766973 1.062117,-0.205079 3.675252,-0.186616 4.732037,0.03344 1.188516,0.24749 2.284849,0.601196 3.195545,1.030965 4.937055,2.32987 8.010973,7.194558 8.010973,12.677903 0,2.094051 -0.429254,4.075656 -1.290828,5.958997 -1.082362,2.365985 -2.906844,4.479909 -5.07543,5.880631 -1.514114,0.977958 -2.996735,1.579933 -4.884943,1.983327 -0.963262,0.205739 -3.374472,0.261782 -4.446302,0.103337 -2.490208,-0.368328 -4.706329,-1.339587 -6.623298,-2.902832 -0.72304,-0.589604 -1.27167,-1.15947 -2.719907,-2.82513 -0.696876,-0.80149 -1.556186,-1.785766 -1.909573,-2.187247 l -0.642525,-0.729985 -0.452734,0.409318 c -0.560367,0.506671 -3.0767136,2.838845 -5.149416,4.772552 l -1.5567571,1.452364 0.1960282,0.220724 c 0.1077911,0.121481 0.7612936,0.876566 1.4521786,1.678058 3.0931861,3.588449 3.9361171,4.436605 5.7459833,5.781579 1.12934,0.839277 3.221316,2.026154 4.643475,2.634466 1.799579,0.769766 3.976093,1.353601 6.141052,1.647288 1.172728,0.15897 3.937351,0.195748 5.037171,0.06675 z"
       id="path1-9" /></g></svg>
