<?xml version="1.0" encoding="UTF-8" standalone="no"?>
<!-- Created with Inkscape (http://www.inkscape.org/) -->

<svg
   width="50mm"
   height="50mm"
   viewBox="0 0 50 50"
   version="1.1"
   id="svg1"
   xml:space="preserve"
   inkscape:export-filename="tag_grey.svg"
   inkscape:export-xdpi="96"
   inkscape:export-ydpi="96"
   xmlns:inkscape="http://www.inkscape.org/namespaces/inkscape"
   xmlns:sodipodi="http://sodipodi.sourceforge.net/DTD/sodipodi-0.dtd"
   xmlns="http://www.w3.org/2000/svg"
   xmlns:svg="http://www.w3.org/2000/svg"><sodipodi:namedview
     id="namedview1"
     pagecolor="#ffffff"
     bordercolor="#000000"
     borderopacity="0.25"
     inkscape:showpageshadow="2"
     inkscape:pageopacity="0.0"
     inkscape:pagecheckerboard="0"
     inkscape:deskcolor="#d1d1d1"
     inkscape:document-units="mm" /><defs
     id="defs1" /><g
     inkscape:label="Layer 1"
     inkscape:groupmode="layer"
     id="layer1"><path
       style="fill:#ffffff;stroke-width:0.729369"
       d="M 28.220001,49.271091 C 27.941317,49.086018 26.421817,47.713305 24.843332,46.220607 23.264841,44.727911 19.021175,40.73327 15.412958,37.343628 11.804739,33.953986 7.2028152,29.628355 5.1864572,27.731117 3.1701007,25.833874 1.3254338,23.965983 1.0871984,23.580248 0.65408508,22.878973 0.65404335,22.878024 0.65729174,13.711161 0.6602936,5.0191969 0.68018372,4.5001212 1.0390509,3.7091299 1.6724622,2.3129932 2.1514038,1.797106 3.3879749,1.1790202 L 4.572761,0.58681588 h 9.144023 c 7.985789,0 9.222241,0.0390267 9.761536,0.30802544 0.726258,0.36226848 25.499929,25.02075468 25.90679,25.78633168 0.37359,0.702982 0.347103,1.685867 -0.062,2.29951 -0.185017,0.277541 -1.682238,1.965341 -3.327159,3.750656 -1.644929,1.785316 -4.119549,4.473734 -5.49916,5.974257 -1.379612,1.500531 -3.940226,4.285627 -5.69025,6.189108 -1.750023,1.903489 -3.304398,3.591158 -3.45416,3.750387 -0.565302,0.601046 -1.297731,0.962482 -1.950378,0.962482 -0.371431,0 -0.903347,-0.151416 -1.182038,-0.336482 z m 6.295289,-8.666629 c 2.759225,-3.025004 5.841647,-6.385198 6.849827,-7.467109 1.008172,-1.08191 2.521775,-2.730946 3.363543,-3.66452 L 46.25915,27.775427 34.213306,15.725165 22.167463,3.674896 h -8.351985 c -9.2840843,0 -9.4578843,0.020571 -9.8571021,1.166069 -0.1503873,0.4315174 -0.2190644,3.2453903 -0.2190644,8.975509 v 8.346927 l 0.7235734,0.631361 c 0.7046622,0.614854 21.3761651,20.011635 23.6849621,22.224404 0.636741,0.610258 1.20113,1.104101 1.254192,1.097428 0.05309,-0.0065 2.354027,-2.487131 5.113251,-5.512132 z M 13.222318,19.283555 C 9.8003723,18.652419 7.9799752,14.940592 9.5505531,11.79673 10.860974,9.1736351 13.91686,8.1562088 16.540318,9.4695655 c 2.506777,1.2549415 3.564028,4.2528455 2.393762,6.7876605 -0.594483,1.287663 -1.325468,2.024185 -2.556358,2.575714 -1.18058,0.528988 -2.054106,0.653736 -3.155404,0.450615 z m 2.402887,-3.719543 c 0.537818,-0.537962 0.65604,-0.802292 0.65604,-1.466838 0,-0.664545 -0.118218,-0.928877 -0.65604,-1.466836 -0.537817,-0.537969 -0.802077,-0.656224 -1.466441,-0.656224 -0.664363,0 -0.928624,0.118255 -1.466441,0.656224 -0.537819,0.537959 -0.656041,0.802291 -0.656041,1.466836 0,0.664546 0.118218,0.928876 0.656041,1.466838 0.537817,0.537967 0.802078,0.656221 1.466441,0.656221 0.664364,0 0.928624,-0.118254 1.466441,-0.656221 z"
       id="path1" /></g></svg>
